solid OpenSCAD_Model
  facet normal 0 0 -1
    outer loop
      vertex 0 0 0
      vertex 48 80 0
      vertex 48 0 0
    endloop
  endfacet
  facet normal -0 0 -1
    outer loop
      vertex 48 80 0
      vertex 0 0 0
      vertex 0 80 0
    endloop
  endfacet
  facet normal -1 0 0
    outer loop
      vertex 0 0 0
      vertex 0 80 40
      vertex 0 80 0
    endloop
  endfacet
  facet normal -1 -0 0
    outer loop
      vertex 0 80 40
      vertex 0 0 0
      vertex 0 0 40
    endloop
  endfacet
  facet normal 0 0 1
    outer loop
      vertex 48 80 40
      vertex 46 78 40
      vertex 48 0 40
    endloop
  endfacet
  facet normal 0 0 1
    outer loop
      vertex 48 80 40
      vertex 2.03142 78 40
      vertex 46 78 40
    endloop
  endfacet
  facet normal 0 0 1
    outer loop
      vertex 2.03142 78 40
      vertex 0 80 40
      vertex 2.03142 2 40
    endloop
  endfacet
  facet normal -0 0 1
    outer loop
      vertex 0 80 40
      vertex 2.03142 78 40
      vertex 48 80 40
    endloop
  endfacet
  facet normal -0 0 1
    outer loop
      vertex 46 2 40
      vertex 48 0 40
      vertex 46 78 40
    endloop
  endfacet
  facet normal -0 0 1
    outer loop
      vertex 2.03142 2 40
      vertex 48 0 40
      vertex 46 2 40
    endloop
  endfacet
  facet normal 0 0 1
    outer loop
      vertex 2.03142 2 40
      vertex 0 0 40
      vertex 48 0 40
    endloop
  endfacet
  facet normal 0 0 1
    outer loop
      vertex 0 0 40
      vertex 2.03142 2 40
      vertex 0 80 40
    endloop
  endfacet
  facet normal 0 1 -0
    outer loop
      vertex 48 80 0
      vertex 0 80 40
      vertex 48 80 40
    endloop
  endfacet
  facet normal 0 1 0
    outer loop
      vertex 0 80 40
      vertex 48 80 0
      vertex 0 80 0
    endloop
  endfacet
  facet normal 1 -0 0
    outer loop
      vertex 48 0 40
      vertex 48 80 0
      vertex 48 80 40
    endloop
  endfacet
  facet normal 1 0 0
    outer loop
      vertex 48 80 0
      vertex 48 0 40
      vertex 48 0 0
    endloop
  endfacet
  facet normal 0 -1 0
    outer loop
      vertex 0 0 0
      vertex 48 0 40
      vertex 0 0 40
    endloop
  endfacet
  facet normal 0 -1 -0
    outer loop
      vertex 48 0 40
      vertex 0 0 0
      vertex 48 0 0
    endloop
  endfacet
  facet normal -0 0 1
    outer loop
      vertex 40 78 1
      vertex 46 2 1
      vertex 46 78 1
    endloop
  endfacet
  facet normal 0 0 1
    outer loop
      vertex 46 2 1
      vertex 40 78 1
      vertex 40 2 1
    endloop
  endfacet
  facet normal -1 0 0
    outer loop
      vertex 46 2 1
      vertex 46 78 40
      vertex 46 78 1
    endloop
  endfacet
  facet normal -1 -0 0
    outer loop
      vertex 46 78 40
      vertex 46 2 1
      vertex 46 2 40
    endloop
  endfacet
  facet normal 0 1 0
    outer loop
      vertex 46 2 40
      vertex 2.07892 2 38.4884
      vertex 2.03142 2 40
    endloop
  endfacet
  facet normal 0 1 0
    outer loop
      vertex 46 2 40
      vertex 2.3154 2 35.9867
      vertex 2.07892 2 38.4884
    endloop
  endfacet
  facet normal 0 1 0
    outer loop
      vertex 46 2 40
      vertex 2.7085 2 33.5047
      vertex 2.3154 2 35.9867
    endloop
  endfacet
  facet normal 0 1 0
    outer loop
      vertex 46 2 40
      vertex 3.25667 2 31.0524
      vertex 2.7085 2 33.5047
    endloop
  endfacet
  facet normal 0 1 0
    outer loop
      vertex 46 2 40
      vertex 3.95773 2 28.6393
      vertex 3.25667 2 31.0524
    endloop
  endfacet
  facet normal 0 1 0
    outer loop
      vertex 46 2 40
      vertex 4.80893 2 26.275
      vertex 3.95773 2 28.6393
    endloop
  endfacet
  facet normal 0 1 0
    outer loop
      vertex 46 2 40
      vertex 5.80692 2 23.9688
      vertex 4.80893 2 26.275
    endloop
  endfacet
  facet normal 0 1 0
    outer loop
      vertex 46 2 40
      vertex 6.94772 2 21.7298
      vertex 5.80692 2 23.9688
    endloop
  endfacet
  facet normal 0 1 0
    outer loop
      vertex 46 2 40
      vertex 8.22688 2 19.5669
      vertex 6.94772 2 21.7298
    endloop
  endfacet
  facet normal 0 1 0
    outer loop
      vertex 46 2 40
      vertex 9.63931 2 17.4886
      vertex 8.22688 2 19.5669
    endloop
  endfacet
  facet normal 0 1 0
    outer loop
      vertex 46 2 40
      vertex 11.1795 2 15.503
      vertex 9.63931 2 17.4886
    endloop
  endfacet
  facet normal 0 1 0
    outer loop
      vertex 46 2 40
      vertex 12.8412 2 13.6181
      vertex 11.1795 2 15.503
    endloop
  endfacet
  facet normal 0 1 0
    outer loop
      vertex 46 2 40
      vertex 14.6181 2 11.8412
      vertex 12.8412 2 13.6181
    endloop
  endfacet
  facet normal 0 1 0
    outer loop
      vertex 46 2 40
      vertex 16.503 2 10.1795
      vertex 14.6181 2 11.8412
    endloop
  endfacet
  facet normal 0 1 0
    outer loop
      vertex 46 2 40
      vertex 18.4886 2 8.63931
      vertex 16.503 2 10.1795
    endloop
  endfacet
  facet normal 0 1 0
    outer loop
      vertex 46 2 40
      vertex 20.5669 2 7.22688
      vertex 18.4886 2 8.63931
    endloop
  endfacet
  facet normal 0 1 0
    outer loop
      vertex 46 2 40
      vertex 22.7298 2 5.94772
      vertex 20.5669 2 7.22688
    endloop
  endfacet
  facet normal 0 1 0
    outer loop
      vertex 46 2 40
      vertex 24.9688 2 4.80692
      vertex 22.7298 2 5.94772
    endloop
  endfacet
  facet normal 0 1 0
    outer loop
      vertex 46 2 40
      vertex 27.275 2 3.80893
      vertex 24.9688 2 4.80692
    endloop
  endfacet
  facet normal 0 1 0
    outer loop
      vertex 46 2 40
      vertex 29.6393 2 2.95773
      vertex 27.275 2 3.80893
    endloop
  endfacet
  facet normal 0 1 0
    outer loop
      vertex 46 2 40
      vertex 32.0524 2 2.25667
      vertex 29.6393 2 2.95773
    endloop
  endfacet
  facet normal 0 1 0
    outer loop
      vertex 46 2 40
      vertex 34.5047 2 1.7085
      vertex 32.0524 2 2.25667
    endloop
  endfacet
  facet normal 0 1 0
    outer loop
      vertex 46 2 40
      vertex 36.9867 2 1.3154
      vertex 34.5047 2 1.7085
    endloop
  endfacet
  facet normal 0 1 0
    outer loop
      vertex 46 2 40
      vertex 39.4884 2 1.07892
      vertex 36.9867 2 1.3154
    endloop
  endfacet
  facet normal 0 1 0
    outer loop
      vertex 46 2 40
      vertex 40 2 1.06284
      vertex 39.4884 2 1.07892
    endloop
  endfacet
  facet normal 0 1 -0
    outer loop
      vertex 46 2 1
      vertex 40 2 1.06284
      vertex 46 2 40
    endloop
  endfacet
  facet normal 0 1 0
    outer loop
      vertex 40 2 1.06284
      vertex 46 2 1
      vertex 40 2 1
    endloop
  endfacet
  facet normal 0 -1 0
    outer loop
      vertex 2.07892 78 38.4884
      vertex 46 78 40
      vertex 2.03142 78 40
    endloop
  endfacet
  facet normal 0 -1 0
    outer loop
      vertex 2.3154 78 35.9867
      vertex 46 78 40
      vertex 2.07892 78 38.4884
    endloop
  endfacet
  facet normal 0 -1 0
    outer loop
      vertex 2.7085 78 33.5047
      vertex 46 78 40
      vertex 2.3154 78 35.9867
    endloop
  endfacet
  facet normal 0 -1 0
    outer loop
      vertex 3.25667 78 31.0524
      vertex 46 78 40
      vertex 2.7085 78 33.5047
    endloop
  endfacet
  facet normal 0 -1 0
    outer loop
      vertex 3.95773 78 28.6393
      vertex 46 78 40
      vertex 3.25667 78 31.0524
    endloop
  endfacet
  facet normal 0 -1 0
    outer loop
      vertex 4.80893 78 26.275
      vertex 46 78 40
      vertex 3.95773 78 28.6393
    endloop
  endfacet
  facet normal 0 -1 0
    outer loop
      vertex 5.80692 78 23.9688
      vertex 46 78 40
      vertex 4.80893 78 26.275
    endloop
  endfacet
  facet normal 0 -1 0
    outer loop
      vertex 6.94772 78 21.7298
      vertex 46 78 40
      vertex 5.80692 78 23.9688
    endloop
  endfacet
  facet normal 0 -1 0
    outer loop
      vertex 8.22688 78 19.5669
      vertex 46 78 40
      vertex 6.94772 78 21.7298
    endloop
  endfacet
  facet normal 0 -1 0
    outer loop
      vertex 9.63931 78 17.4886
      vertex 46 78 40
      vertex 8.22688 78 19.5669
    endloop
  endfacet
  facet normal 0 -1 0
    outer loop
      vertex 11.1795 78 15.503
      vertex 46 78 40
      vertex 9.63931 78 17.4886
    endloop
  endfacet
  facet normal 0 -1 0
    outer loop
      vertex 12.8412 78 13.6181
      vertex 46 78 40
      vertex 11.1795 78 15.503
    endloop
  endfacet
  facet normal 0 -1 0
    outer loop
      vertex 14.6181 78 11.8412
      vertex 46 78 40
      vertex 12.8412 78 13.6181
    endloop
  endfacet
  facet normal 0 -1 0
    outer loop
      vertex 16.503 78 10.1795
      vertex 46 78 40
      vertex 14.6181 78 11.8412
    endloop
  endfacet
  facet normal 0 -1 0
    outer loop
      vertex 18.4886 78 8.63931
      vertex 46 78 40
      vertex 16.503 78 10.1795
    endloop
  endfacet
  facet normal 0 -1 0
    outer loop
      vertex 20.5669 78 7.22688
      vertex 46 78 40
      vertex 18.4886 78 8.63931
    endloop
  endfacet
  facet normal 0 -1 0
    outer loop
      vertex 22.7298 78 5.94772
      vertex 46 78 40
      vertex 20.5669 78 7.22688
    endloop
  endfacet
  facet normal 0 -1 0
    outer loop
      vertex 24.9688 78 4.80692
      vertex 46 78 40
      vertex 22.7298 78 5.94772
    endloop
  endfacet
  facet normal 0 -1 0
    outer loop
      vertex 27.275 78 3.80893
      vertex 46 78 40
      vertex 24.9688 78 4.80692
    endloop
  endfacet
  facet normal 0 -1 0
    outer loop
      vertex 29.6393 78 2.95773
      vertex 46 78 40
      vertex 27.275 78 3.80893
    endloop
  endfacet
  facet normal 0 -1 0
    outer loop
      vertex 32.0524 78 2.25667
      vertex 46 78 40
      vertex 29.6393 78 2.95773
    endloop
  endfacet
  facet normal 0 -1 0
    outer loop
      vertex 34.5047 78 1.7085
      vertex 46 78 40
      vertex 32.0524 78 2.25667
    endloop
  endfacet
  facet normal 0 -1 0
    outer loop
      vertex 36.9867 78 1.3154
      vertex 46 78 40
      vertex 34.5047 78 1.7085
    endloop
  endfacet
  facet normal 0 -1 0
    outer loop
      vertex 39.4884 78 1.07892
      vertex 46 78 40
      vertex 36.9867 78 1.3154
    endloop
  endfacet
  facet normal 0 -1 0
    outer loop
      vertex 40 78 1.06284
      vertex 46 78 40
      vertex 39.4884 78 1.07892
    endloop
  endfacet
  facet normal 0 -1 0
    outer loop
      vertex 46 78 1
      vertex 40 78 1.06284
      vertex 40 78 1
    endloop
  endfacet
  facet normal 0 -1 0
    outer loop
      vertex 40 78 1.06284
      vertex 46 78 1
      vertex 46 78 40
    endloop
  endfacet
  facet normal 0.0314153 0 0.999506
    outer loop
      vertex 39.4884 78 1.07892
      vertex 40 2 1.06284
      vertex 40 78 1.06284
    endloop
  endfacet
  facet normal 0.0314153 0 0.999506
    outer loop
      vertex 40 2 1.06284
      vertex 39.4884 78 1.07892
      vertex 39.4884 2 1.07892
    endloop
  endfacet
  facet normal 0.0941082 0 0.995562
    outer loop
      vertex 36.9867 78 1.3154
      vertex 39.4884 2 1.07892
      vertex 39.4884 78 1.07892
    endloop
  endfacet
  facet normal 0.0941082 0 0.995562
    outer loop
      vertex 39.4884 2 1.07892
      vertex 36.9867 78 1.3154
      vertex 36.9867 2 1.3154
    endloop
  endfacet
  facet normal 0.156431 0 0.987689
    outer loop
      vertex 34.5047 78 1.7085
      vertex 36.9867 2 1.3154
      vertex 36.9867 78 1.3154
    endloop
  endfacet
  facet normal 0.156431 0 0.987689
    outer loop
      vertex 36.9867 2 1.3154
      vertex 34.5047 78 1.7085
      vertex 34.5047 2 1.7085
    endloop
  endfacet
  facet normal 0.218149 0 0.975915
    outer loop
      vertex 32.0524 78 2.25667
      vertex 34.5047 2 1.7085
      vertex 34.5047 78 1.7085
    endloop
  endfacet
  facet normal 0.218149 0 0.975915
    outer loop
      vertex 34.5047 2 1.7085
      vertex 32.0524 78 2.25667
      vertex 32.0524 2 2.25667
    endloop
  endfacet
  facet normal 0.278987 0 0.960295
    outer loop
      vertex 29.6393 78 2.95773
      vertex 32.0524 2 2.25667
      vertex 32.0524 78 2.25667
    endloop
  endfacet
  facet normal 0.278987 0 0.960295
    outer loop
      vertex 32.0524 2 2.25667
      vertex 29.6393 78 2.95773
      vertex 29.6393 2 2.95773
    endloop
  endfacet
  facet normal 0.338738 0 0.940881
    outer loop
      vertex 27.275 78 3.80893
      vertex 29.6393 2 2.95773
      vertex 29.6393 78 2.95773
    endloop
  endfacet
  facet normal 0.338738 0 0.940881
    outer loop
      vertex 29.6393 2 2.95773
      vertex 27.275 78 3.80893
      vertex 27.275 2 3.80893
    endloop
  endfacet
  facet normal 0.397151 0 0.917753
    outer loop
      vertex 24.9688 78 4.80692
      vertex 27.275 2 3.80893
      vertex 27.275 78 3.80893
    endloop
  endfacet
  facet normal 0.397151 0 0.917753
    outer loop
      vertex 27.275 2 3.80893
      vertex 24.9688 78 4.80692
      vertex 24.9688 2 4.80692
    endloop
  endfacet
  facet normal 0.453982 0 0.891011
    outer loop
      vertex 22.7298 78 5.94772
      vertex 24.9688 2 4.80692
      vertex 24.9688 78 4.80692
    endloop
  endfacet
  facet normal 0.453982 0 0.891011
    outer loop
      vertex 24.9688 2 4.80692
      vertex 22.7298 78 5.94772
      vertex 22.7298 2 5.94772
    endloop
  endfacet
  facet normal 0.509049 0 0.860738
    outer loop
      vertex 20.5669 78 7.22688
      vertex 22.7298 2 5.94772
      vertex 22.7298 78 5.94772
    endloop
  endfacet
  facet normal 0.509049 0 0.860738
    outer loop
      vertex 22.7298 2 5.94772
      vertex 20.5669 78 7.22688
      vertex 20.5669 2 7.22688
    endloop
  endfacet
  facet normal 0.562088 0 0.827077
    outer loop
      vertex 18.4886 78 8.63931
      vertex 20.5669 2 7.22688
      vertex 20.5669 78 7.22688
    endloop
  endfacet
  facet normal 0.562088 0 0.827077
    outer loop
      vertex 20.5669 2 7.22688
      vertex 18.4886 78 8.63931
      vertex 18.4886 2 8.63931
    endloop
  endfacet
  facet normal 0.612907 0 0.790155
    outer loop
      vertex 16.503 78 10.1795
      vertex 18.4886 2 8.63931
      vertex 18.4886 78 8.63931
    endloop
  endfacet
  facet normal 0.612907 0 0.790155
    outer loop
      vertex 18.4886 2 8.63931
      vertex 16.503 78 10.1795
      vertex 16.503 2 10.1795
    endloop
  endfacet
  facet normal 0.661298 0 0.750123
    outer loop
      vertex 14.6181 78 11.8412
      vertex 16.503 2 10.1795
      vertex 16.503 78 10.1795
    endloop
  endfacet
  facet normal 0.661298 0 0.750123
    outer loop
      vertex 16.503 2 10.1795
      vertex 14.6181 78 11.8412
      vertex 14.6181 2 11.8412
    endloop
  endfacet
  facet normal 0.707107 -0 0.707107
    outer loop
      vertex 12.8412 2 13.6181
      vertex 14.6181 78 11.8412
      vertex 12.8412 78 13.6181
    endloop
  endfacet
  facet normal 0.707107 0 0.707107
    outer loop
      vertex 14.6181 78 11.8412
      vertex 12.8412 2 13.6181
      vertex 14.6181 2 11.8412
    endloop
  endfacet
  facet normal 0.750123 -0 0.661298
    outer loop
      vertex 11.1795 2 15.503
      vertex 12.8412 78 13.6181
      vertex 11.1795 78 15.503
    endloop
  endfacet
  facet normal 0.750123 0 0.661298
    outer loop
      vertex 12.8412 78 13.6181
      vertex 11.1795 2 15.503
      vertex 12.8412 2 13.6181
    endloop
  endfacet
  facet normal 0.790155 -0 0.612907
    outer loop
      vertex 9.63931 2 17.4886
      vertex 11.1795 78 15.503
      vertex 9.63931 78 17.4886
    endloop
  endfacet
  facet normal 0.790155 0 0.612907
    outer loop
      vertex 11.1795 78 15.503
      vertex 9.63931 2 17.4886
      vertex 11.1795 2 15.503
    endloop
  endfacet
  facet normal 0.827077 -0 0.562088
    outer loop
      vertex 8.22688 2 19.5669
      vertex 9.63931 78 17.4886
      vertex 8.22688 78 19.5669
    endloop
  endfacet
  facet normal 0.827077 0 0.562088
    outer loop
      vertex 9.63931 78 17.4886
      vertex 8.22688 2 19.5669
      vertex 9.63931 2 17.4886
    endloop
  endfacet
  facet normal 0.860738 -0 0.509049
    outer loop
      vertex 6.94772 2 21.7298
      vertex 8.22688 78 19.5669
      vertex 6.94772 78 21.7298
    endloop
  endfacet
  facet normal 0.860738 0 0.509049
    outer loop
      vertex 8.22688 78 19.5669
      vertex 6.94772 2 21.7298
      vertex 8.22688 2 19.5669
    endloop
  endfacet
  facet normal 0.891011 -0 0.453982
    outer loop
      vertex 5.80692 2 23.9688
      vertex 6.94772 78 21.7298
      vertex 5.80692 78 23.9688
    endloop
  endfacet
  facet normal 0.891011 0 0.453982
    outer loop
      vertex 6.94772 78 21.7298
      vertex 5.80692 2 23.9688
      vertex 6.94772 2 21.7298
    endloop
  endfacet
  facet normal 0.917753 -0 0.397151
    outer loop
      vertex 4.80893 2 26.275
      vertex 5.80692 78 23.9688
      vertex 4.80893 78 26.275
    endloop
  endfacet
  facet normal 0.917753 0 0.397151
    outer loop
      vertex 5.80692 78 23.9688
      vertex 4.80893 2 26.275
      vertex 5.80692 2 23.9688
    endloop
  endfacet
  facet normal 0.940881 -0 0.338738
    outer loop
      vertex 3.95773 2 28.6393
      vertex 4.80893 78 26.275
      vertex 3.95773 78 28.6393
    endloop
  endfacet
  facet normal 0.940881 0 0.338738
    outer loop
      vertex 4.80893 78 26.275
      vertex 3.95773 2 28.6393
      vertex 4.80893 2 26.275
    endloop
  endfacet
  facet normal 0.960295 -0 0.278987
    outer loop
      vertex 3.25667 2 31.0524
      vertex 3.95773 78 28.6393
      vertex 3.25667 78 31.0524
    endloop
  endfacet
  facet normal 0.960295 0 0.278987
    outer loop
      vertex 3.95773 78 28.6393
      vertex 3.25667 2 31.0524
      vertex 3.95773 2 28.6393
    endloop
  endfacet
  facet normal 0.975915 -0 0.218149
    outer loop
      vertex 2.7085 2 33.5047
      vertex 3.25667 78 31.0524
      vertex 2.7085 78 33.5047
    endloop
  endfacet
  facet normal 0.975915 0 0.218149
    outer loop
      vertex 3.25667 78 31.0524
      vertex 2.7085 2 33.5047
      vertex 3.25667 2 31.0524
    endloop
  endfacet
  facet normal 0.987689 -0 0.156431
    outer loop
      vertex 2.3154 2 35.9867
      vertex 2.7085 78 33.5047
      vertex 2.3154 78 35.9867
    endloop
  endfacet
  facet normal 0.987689 0 0.156431
    outer loop
      vertex 2.7085 78 33.5047
      vertex 2.3154 2 35.9867
      vertex 2.7085 2 33.5047
    endloop
  endfacet
  facet normal 0.995562 -0 0.0941082
    outer loop
      vertex 2.07892 2 38.4884
      vertex 2.3154 78 35.9867
      vertex 2.07892 78 38.4884
    endloop
  endfacet
  facet normal 0.995562 0 0.0941082
    outer loop
      vertex 2.3154 78 35.9867
      vertex 2.07892 2 38.4884
      vertex 2.3154 2 35.9867
    endloop
  endfacet
  facet normal 0.999507 -0 0.0314082
    outer loop
      vertex 2.03142 2 40
      vertex 2.07892 78 38.4884
      vertex 2.03142 78 40
    endloop
  endfacet
  facet normal 0.999507 0 0.0314082
    outer loop
      vertex 2.07892 78 38.4884
      vertex 2.03142 2 40
      vertex 2.07892 2 38.4884
    endloop
  endfacet
  facet normal 1 -0 0
    outer loop
      vertex 40 2 1.06284
      vertex 40 78 1
      vertex 40 78 1.06284
    endloop
  endfacet
  facet normal 1 0 0
    outer loop
      vertex 40 78 1
      vertex 40 2 1.06284
      vertex 40 2 1
    endloop
  endfacet
endsolid OpenSCAD_Model
